<?xml version="1.0" encoding="UTF-8"?>
<svg id="Layer_1" data-name="Layer 1" xmlns="http://www.w3.org/2000/svg" viewBox="0 0 479.11 312">
  <defs>
    <style>
      .cls-1 {
        fill: #202020;
        stroke-width: 0px;
      }

      .cls-2 {
        fill: none;
        stroke: #202020;
        stroke-miterlimit: 10;
        stroke-width: 8px;
      }
    </style>
  </defs>
  <rect class="cls-2" x="4" y="4" width="471.11" height="304"/>
  <g>
    <g>
      <path class="cls-1" d="M159.99,130.3V57.72h33.86l10.65,6.95v32.35l-10.65,6.95h-21.02v26.34h-12.85ZM172.83,70.16v21.36h18.81v-21.36h-18.81Z"/>
      <path class="cls-1" d="M249,57.72h12.85v66.15l-10.65,6.95h-28.73l-10.65-6.95V57.72h12.85v59.62h24.32v-59.62Z"/>
      <path class="cls-1" d="M317.38,87.48l-7.98,5.18v.21l7.98,5.18v25.3l-10.65,6.95h-34.78V57.72h34.78l10.65,6.95v22.81ZM284.8,70.16v16.38h19.73v-16.38h-19.73ZM284.8,98.98v18.87h19.73v-18.87h-19.73Z"/>
    </g>
    <g>
      <path class="cls-1" d="M196.04,218.91v-18.71h35.22v47.24l-16.02,10.45h-39.09l-16.02-10.45v-89.81l16.02-10.45h39.09l16.02,10.45v22.3h-19.34v-14.03h-32.46v73.28h32.46v-20.27h-15.89Z"/>
      <path class="cls-1" d="M267.45,165.9v31.34l9.81-6.39h20.44l16.02,10.45v46.15l-16.02,10.45h-33.57l-16.02-10.45v-89.81l16.02-10.45h33.57l16.02,10.45v22.3h-19.34v-14.03h-26.94ZM267.45,209.56v29.62h26.94v-29.62h-26.94Z"/>
    </g>
  </g>
</svg>